<?xml version="1.0" encoding="UTF-8" standalone="no"?>
<svg
   xmlns:dc="http://purl.org/dc/elements/1.1/"
   xmlns:cc="http://creativecommons.org/ns#"
   xmlns:rdf="http://www.w3.org/1999/02/22-rdf-syntax-ns#"
   xmlns:svg="http://www.w3.org/2000/svg"
   xmlns="http://www.w3.org/2000/svg"
   xmlns:sodipodi="http://sodipodi.sourceforge.net/DTD/sodipodi-0.dtd"
   xmlns:inkscape="http://www.inkscape.org/namespaces/inkscape"
   enable-background="new 0 0 24 24"
   height="24"
   viewBox="0 0 24 24"
   width="24"
   version="1.1"
   id="svg913"
   sodipodi:docname="arrowLeft.svg"
   inkscape:version="1.0.1 (3bc2e813f5, 2020-09-07)">
  <metadata
     id="metadata919">
    <rdf:RDF>
      <cc:Work
         rdf:about="">
        <dc:format>image/svg+xml</dc:format>
        <dc:type
           rdf:resource="http://purl.org/dc/dcmitype/StillImage" />
        <dc:title></dc:title>
      </cc:Work>
    </rdf:RDF>
  </metadata>
  <defs
     id="defs917" />
  <sodipodi:namedview
     pagecolor="#5f5f5f"
     bordercolor="#666666"
     borderopacity="1"
     objecttolerance="10"
     gridtolerance="10"
     guidetolerance="10"
     inkscape:pageopacity="0"
     inkscape:pageshadow="2"
     inkscape:window-width="1920"
     inkscape:window-height="1057"
     id="namedview915"
     showgrid="false"
     inkscape:snap-grids="false"
     inkscape:zoom="26.221876"
     inkscape:cx="18.221581"
     inkscape:cy="11.324992"
     inkscape:window-x="1912"
     inkscape:window-y="-8"
     inkscape:window-maximized="1"
     inkscape:current-layer="g909"
     inkscape:document-rotation="0" />
  <g
     id="g903">
    <rect
       fill="none"
       height="24"
       width="24"
       id="rect899" />
    <rect
       fill="none"
       height="24"
       width="24"
       id="rect901" />
  </g>
  <g
     id="g911">
    <g
       id="g909">
      <path
         d="m 12.912486,12.58 4.04,5.65 c 0.34,0.48 0.89,0.77 1.48,0.77 v 0 c 1.49,0 2.35,-1.68 1.49,-2.89 l -2.93,-4.11 2.93,-4.11 c 0.87,-1.21 0,-2.89 -1.49,-2.89 v 0 c -0.59,0 -1.15,0.29 -1.49,0.77 l -4.04,5.65 c -0.24,0.35 -0.24,0.81 0.01,1.16 z"
         id="path905"
         style="fill:#ffffff" />
      <path
         d="m 5.9124864,12.58 4.0299998,5.65 C 10.292486,18.71 10.842486,19 11.432486,19 v 0 c 1.49,0 2.36,-1.68 1.49,-2.89 L 9.9924862,12 12.922486,7.89 c 0.87,-1.21 0,-2.89 -1.49,-2.89 v 0 c -0.59,0 -1.15,0.29 -1.4899998,0.77 l -4.0399998,5.65 c -0.24,0.35 -0.24,0.81 0.01,1.16 z"
         id="path907"
         style="fill:#ffffff" />
    </g>
  </g>
</svg>
