<?xml version="1.0" encoding="UTF-8" standalone="no"?>
<svg
   xmlns:dc="http://purl.org/dc/elements/1.1/"
   xmlns:cc="http://creativecommons.org/ns#"
   xmlns:rdf="http://www.w3.org/1999/02/22-rdf-syntax-ns#"
   xmlns:svg="http://www.w3.org/2000/svg"
   xmlns="http://www.w3.org/2000/svg"
   xmlns:sodipodi="http://sodipodi.sourceforge.net/DTD/sodipodi-0.dtd"
   xmlns:inkscape="http://www.inkscape.org/namespaces/inkscape"
   enable-background="new 0 0 24 24"
   height="24"
   viewBox="0 0 24 24"
   width="24"
   version="1.1"
   id="svg913"
   sodipodi:docname="arrowRight.svg"
   inkscape:version="1.0.1 (3bc2e813f5, 2020-09-07)">
  <metadata
     id="metadata919">
    <rdf:RDF>
      <cc:Work
         rdf:about="">
        <dc:format>image/svg+xml</dc:format>
        <dc:type
           rdf:resource="http://purl.org/dc/dcmitype/StillImage" />
        <dc:title></dc:title>
      </cc:Work>
    </rdf:RDF>
  </metadata>
  <defs
     id="defs917" />
  <sodipodi:namedview
     pagecolor="#5f5f5f"
     bordercolor="#666666"
     borderopacity="1"
     objecttolerance="10"
     gridtolerance="10"
     guidetolerance="10"
     inkscape:pageopacity="0"
     inkscape:pageshadow="2"
     inkscape:window-width="1920"
     inkscape:window-height="1057"
     id="namedview915"
     showgrid="false"
     inkscape:snap-grids="false"
     inkscape:zoom="26.221876"
     inkscape:cx="18.221581"
     inkscape:cy="11.324992"
     inkscape:window-x="1912"
     inkscape:window-y="-8"
     inkscape:window-maximized="1"
     inkscape:current-layer="g909"
     inkscape:document-rotation="0" />
  <g
     id="g903">
    <rect
       fill="none"
       height="24"
       width="24"
       id="rect899" />
    <rect
       fill="none"
       height="24"
       width="24"
       id="rect901" />
  </g>
  <g
     id="g911">
    <g
       id="g909"
       style="fill:#ffffff">
      <path
         d="M20.08,11.42l-4.04-5.65C15.7,5.29,15.15,5,14.56,5h0c-1.49,0-2.35,1.68-1.49,2.89L16,12l-2.93,4.11 c-0.87,1.21,0,2.89,1.49,2.89h0c0.59,0,1.15-0.29,1.49-0.77l4.04-5.65C20.33,12.23,20.33,11.77,20.08,11.42z"
         id="path905"
         style="fill:#ffffff" />
      <path
         d="M13.08,11.42L9.05,5.77C8.7,5.29,8.15,5,7.56,5h0C6.07,5,5.2,6.68,6.07,7.89L9,12l-2.93,4.11C5.2,17.32,6.07,19,7.56,19h0 c0.59,0,1.15-0.29,1.49-0.77l4.04-5.65C13.33,12.23,13.33,11.77,13.08,11.42z"
         id="path907"
         style="fill:#ffffff" />
    </g>
  </g>
</svg>
